<svg xmlns="http://www.w3.org/2000/svg" width="1200" height="780" viewBox="0 0 1200 780" role="img" aria-labelledby="title desc"><title id="title">Find the decision that keeps returning</title><desc id="desc">Original founder dependency network with three incoming work requests converging on a founder and one bounded handoff to an authorized owner.</desc><rect width="1200" height="780" fill="#f6f7f3"/><g font-family="Arial, sans-serif"><text x="55" y="82" font-size="34" fill="#20394a">Find the decision that keeps returning</text><text x="57" y="129" font-size="20" fill="#20394a">ProfitStackingSecrets • Original editorial illustration</text><rect x="75" y="235" width="265" height="91" rx="10" fill="#e8d8b6"/><text x="107" y="291" font-size="27" fill="#20394a">Invoice question</text><rect x="75" y="385" width="265" height="91" rx="10" fill="#e8d8b6"/><text x="108" y="441" font-size="27" fill="#20394a">Scope question</text><rect x="75" y="535" width="265" height="91" rx="10" fill="#e8d8b6"/><text x="109" y="591" font-size="27" fill="#20394a">Access question</text><path d="M346 280 L521 418 M346 430 H521 M346 580 L521 442" fill="none" stroke="#ac8a4a" stroke-width="6" stroke-linecap="round" stroke-linejoin="round"/><circle cx="611" cy="425" r="91" fill="#347459"/><text x="553" y="434" font-size="27" fill="#fff">Founder</text><path d="M710 425 H831 M811 405 L833 425 L811 445" fill="none" stroke="#347459" stroke-width="8" stroke-linecap="round" stroke-linejoin="round"/><rect x="850" y="322" width="285" height="206" rx="10" fill="#d1e7dc"/><text x="880" y="371" font-size="26" fill="#20394a">ONE HANDOFF</text><text x="880" y="420" font-size="23" fill="#20394a">Inputs + authority</text><text x="880" y="462" font-size="23" fill="#20394a">Exceptions + review</text><text x="331" y="698" font-size="28" fill="#20394a">Measure time, rework, cost, and customer impact.</text></g></svg>
