<svg xmlns="http://www.w3.org/2000/svg" width="1200" height="760" viewBox="0 0 1200 760" role="img" aria-labelledby="title desc"><title id="title">Renewal Revenue Map: Find the Missing Second Sale</title><desc id="desc">Original editorial illustration for Renewal Revenue Map: Find the Missing Second Sale, showing a distinct evidence-to-decision path with checkpoints and a stop branch.</desc><rect width="1200" height="760" fill="#f6f7f3"/><g><rect x="430" y="227" width="95" height="153" rx="14" fill="#3f8a62" stroke="#173f35" stroke-width="4"/><rect x="928" y="394" width="154" height="65" rx="21" fill="#ffffff" stroke="#173f35" stroke-width="5"/><rect x="874" y="360" width="215" height="127" rx="11" fill="#dfe8e3" stroke="#173f35" stroke-width="6"/><rect x="170" y="515" width="121" height="70" rx="20" fill="#3f8a62" stroke="#173f35" stroke-width="7"/><rect x="82" y="232" width="235" height="143" rx="17" fill="#ffffff" stroke="#173f35" stroke-width="4"/><rect x="652" y="417" width="116" height="117" rx="10" fill="#dfe8e3" stroke="#173f35" stroke-width="5"/><rect x="142" y="406" width="198" height="46" rx="14" fill="#3f8a62" stroke="#173f35" stroke-width="6"/><rect x="195" y="406" width="89" height="45" rx="21" fill="#ffffff" stroke="#173f35" stroke-width="7"/><rect x="666" y="226" width="80" height="45" rx="11" fill="#dfe8e3" stroke="#173f35" stroke-width="4"/><polyline points="90,560 255,526 420,575 585,583 750,595 915,607 1080,604" fill="none" stroke="#173f35" stroke-width="12" stroke-linecap="round" stroke-linejoin="round"/><text x="70" y="88" font-family="Arial,sans-serif" font-size="40" font-weight="700" fill="#173f35">Renewal Revenue Map: Find the Missing Second Sale</text><text x="72" y="135" font-family="Arial,sans-serif" font-size="21" fill="#173f35">Observe → compare → decide → record</text><path d="M1010 545 l75 75 m0 -75 l-75 75" stroke="#3f8a62" stroke-width="15"/><text x="930" y="690" font-family="Arial,sans-serif" font-size="23" fill="#173f35">STOP / VERIFY</text></g></svg>
