<svg xmlns="http://www.w3.org/2000/svg" width="1200" height="760" viewBox="0 0 1200 760" role="img" aria-labelledby="title desc"><title id="title">Service Rework Costs: Find Margin Lost After Delivery</title><desc id="desc">Original editorial illustration for Service Rework Costs: Find Margin Lost After Delivery, showing a distinct evidence-to-decision path with checkpoints and a stop branch.</desc><rect width="1200" height="760" fill="#f6f7f3"/><g><rect x="512" y="233" width="166" height="56" rx="12" fill="#3f8a62" stroke="#173f35" stroke-width="4"/><rect x="241" y="192" width="82" height="105" rx="27" fill="#ffffff" stroke="#173f35" stroke-width="5"/><rect x="672" y="460" width="165" height="128" rx="18" fill="#dfe8e3" stroke="#173f35" stroke-width="6"/><rect x="610" y="476" width="151" height="111" rx="10" fill="#3f8a62" stroke="#173f35" stroke-width="7"/><rect x="137" y="522" width="156" height="119" rx="8" fill="#ffffff" stroke="#173f35" stroke-width="4"/><rect x="543" y="548" width="209" height="51" rx="14" fill="#dfe8e3" stroke="#173f35" stroke-width="5"/><rect x="942" y="279" width="105" height="45" rx="27" fill="#3f8a62" stroke="#173f35" stroke-width="6"/><rect x="876" y="240" width="80" height="45" rx="30" fill="#ffffff" stroke="#173f35" stroke-width="7"/><rect x="519" y="193" width="80" height="45" rx="19" fill="#dfe8e3" stroke="#173f35" stroke-width="4"/><polyline points="90,568 255,520 420,545 585,552 750,552 915,606 1080,560" fill="none" stroke="#173f35" stroke-width="12" stroke-linecap="round" stroke-linejoin="round"/><text x="70" y="88" font-family="Arial,sans-serif" font-size="40" font-weight="700" fill="#173f35">Service Rework Costs: Find Margin Lost After Deli</text><text x="72" y="135" font-family="Arial,sans-serif" font-size="21" fill="#173f35">Observe → compare → decide → record</text><path d="M1010 545 l75 75 m0 -75 l-75 75" stroke="#3f8a62" stroke-width="15"/><text x="930" y="690" font-family="Arial,sans-serif" font-size="23" fill="#173f35">STOP / VERIFY</text></g></svg>
